<?xml version="1.0" encoding="utf-8" ?>
<svg baseProfile="tiny" height="864" version="1.2" width="844" xmlns="http://www.w3.org/2000/svg" xmlns:ev="http://www.w3.org/2001/xml-events" xmlns:xlink="http://www.w3.org/1999/xlink"><defs /><circle cx="422.0" cy="432.0" fill="#6F6868" r="422.0" /><polygon fill="white" points="391,36 390,37 378,37 377,38 369,38 368,39 361,39 360,40 355,40 354,41 349,41 348,42 343,42 342,43 338,43 337,44 333,44 332,45 329,45 328,46 324,46 323,47 320,47 319,48 316,48 315,49 313,49 312,50 309,50 308,51 306,51 305,52 302,52 301,53 299,53 298,54 296,54 295,55 293,55 292,56 290,56 289,57 287,57 286,58 284,58 283,59 281,59 280,60 278,60 277,61 276,61 275,62 273,62 272,63 271,63 270,64 268,64 267,65 266,65 265,66 263,66 262,67 261,67 260,68 259,68 258,69 256,69 255,70 254,70 253,71 252,71 251,72 250,72 249,73 247,73 246,74 245,74 244,75 243,75 242,76 241,76 240,77 239,77 238,78 237,78 236,79 235,79 234,80 233,80 231,82 230,82 229,83 228,83 227,84 226,84 225,85 224,85 223,86 222,86 220,88 219,88 218,89 217,89 216,90 215,90 213,92 212,92 211,93 210,93 208,95 207,95 205,97 204,97 203,98 202,98 200,100 199,100 197,102 196,102 194,104 193,104 191,106 190,106 187,109 186,109 184,111 183,111 180,114 179,114 176,117 175,117 172,120 171,120 166,125 165,125 160,130 159,130 153,136 152,136 120,168 120,169 114,175 114,176 109,181 109,182 104,187 104,188 101,191 101,192 98,195 98,196 95,199 95,200 93,202 93,203 90,206 90,207 88,209 88,210 86,212 86,213 84,215 84,216 82,218 82,219 81,220 81,221 79,223 79,224 77,226 77,227 76,228 76,229 74,231 74,232 73,233 73,234 72,235 72,236 70,238 70,239 69,240 69,241 68,242 68,243 67,244 67,245 66,246 66,247 64,249 64,250 63,251 63,252 62,253 62,254 61,255 61,256 60,257 60,258 59,259 59,260 58,261 58,262 57,263 57,265 56,266 56,267 55,268 55,269 54,270 54,271 53,272 53,273 52,274 52,276 51,277 51,278 50,279 50,281 49,282 49,283 48,284 48,286 47,287 47,288 46,289 46,291 45,292 45,293 44,294 44,296 43,297 43,299 42,300 42,302 41,303 41,305 40,306 40,308 39,309 39,311 38,312 38,314 37,315 37,317 36,318 36,320 35,321 35,324 34,325 34,328 33,329 33,331 32,332 32,335 31,336 31,339 30,340 30,344 29,345 29,348 28,349 28,353 27,354 27,358 26,359 26,364 25,365 25,370 24,371 24,376 23,377 23,384 22,385 22,393 21,394 21,406 20,407 20,458 21,459 21,471 22,472 22,480 23,481 23,488 24,489 24,494 25,495 25,500 26,501 26,506 27,507 27,511 28,512 28,516 29,517 29,520 30,521 30,525 31,526 31,529 32,530 32,533 33,534 33,536 34,537 34,540 35,541 35,544 36,545 36,547 37,548 37,550 38,551 38,553 39,554 39,556 40,557 40,559 41,560 41,562 42,563 42,565 43,566 43,568 44,569 44,571 45,572 45,573 46,574 46,576 47,577 47,578 48,579 48,581 49,582 49,583 50,584 50,586 51,587 51,588 52,589 52,591 53,592 53,593 54,594 54,595 55,596 55,597 56,598 56,599 57,600 57,602 58,603 58,604 59,605 59,606 60,607 60,608 61,609 61,610 62,611 62,612 63,613 63,614 64,615 64,616 66,618 66,619 67,620 67,621 68,622 68,623 69,624 69,625 70,626 70,627 72,629 72,630 73,631 73,632 74,633 74,634 76,636 76,637 77,638 77,639 79,641 79,642 81,644 81,645 82,646 82,647 84,649 84,650 86,652 86,653 88,655 88,656 90,658 90,659 93,662 93,663 95,665 95,666 98,669 98,670 101,673 101,674 104,677 104,678 108,682 108,683 113,688 113,689 120,696 120,697 152,729 153,729 159,735 160,735 165,740 166,740 171,745 172,745 175,748 176,748 179,751 180,751 183,754 184,754 186,756 187,756 190,759 191,759 193,761 194,761 196,763 197,763 199,765 200,765 202,767 203,767 205,769 206,769 208,771 209,771 210,772 211,772 213,774 214,774 215,775 216,775 218,777 219,777 220,778 221,778 222,779 223,779 225,781 226,781 227,782 228,782 229,783 230,783 231,784 232,784 233,785 234,785 236,787 237,787 238,788 239,788 240,789 241,789 242,790 243,790 244,791 245,791 246,792 247,792 248,793 249,793 250,794 252,794 253,795 254,795 255,796 256,796 257,797 258,797 259,798 261,798 262,799 263,799 264,800 265,800 266,801 268,801 269,802 270,802 271,803 273,803 274,804 275,804 276,805 278,805 279,806 280,806 281,807 283,807 284,808 286,808 287,809 289,809 290,810 292,810 293,811 295,811 296,812 298,812 299,813 301,813 302,814 304,814 305,815 307,815 308,816 311,816 312,817 315,817 316,818 318,818 319,819 322,819 323,820 326,820 327,821 331,821 332,822 335,822 336,823 340,823 341,824 345,824 346,825 351,825 352,826 357,826 358,827 363,827 364,828 371,828 372,829 380,829 381,830 393,830 394,831 445,831 446,830 458,830 459,829 467,829 468,828 475,828 476,827 481,827 482,826 487,826 488,825 493,825 494,824 498,824 499,823 503,823 504,822 507,822 508,821 512,821 513,820 516,820 517,819 520,819 521,818 523,818 524,817 527,817 528,816 531,816 532,815 534,815 535,814 537,814 538,813 540,813 541,812 543,812 544,811 546,811 547,810 549,810 550,809 552,809 553,808 555,808 556,807 558,807 559,806 560,806 561,805 563,805 564,804 566,804 567,803 568,803 569,802 570,802 571,801 573,801 574,800 575,800 576,799 577,799 578,798 580,798 581,797 582,797 583,796 584,796 585,795 586,795 587,794 589,794 590,793 591,793 592,792 593,792 594,791 595,791 596,790 597,790 598,789 599,789 600,788 601,788 602,787 603,787 605,785 606,785 607,784 608,784 609,783 610,783 611,782 612,782 613,781 614,781 616,779 617,779 618,778 619,778 620,777 621,777 623,775 624,775 625,774 626,774 628,772 629,772 631,770 632,770 633,769 634,769 636,767 637,767 639,765 640,765 642,763 643,763 645,761 646,761 649,758 650,758 652,756 653,756 656,753 657,753 660,750 661,750 665,746 666,746 670,742 671,742 676,737 677,737 683,731 684,731 716,699 716,698 723,691 723,690 727,686 727,685 732,680 732,679 735,676 735,675 738,672 738,671 741,668 741,667 743,665 743,664 746,661 746,660 748,658 748,657 750,655 750,654 752,652 752,651 754,649 754,648 755,647 755,646 757,644 757,643 759,641 759,640 760,639 760,638 762,636 762,635 763,634 763,633 764,632 764,631 766,629 766,628 767,627 767,626 768,625 768,624 769,623 769,622 770,621 770,620 772,618 772,617 773,616 773,615 774,614 774,613 775,612 775,611 776,610 776,609 777,608 777,607 778,606 778,605 779,604 779,602 780,601 780,600 781,599 781,598 782,597 782,596 783,595 783,594 784,593 784,591 785,590 785,589 786,588 786,586 787,585 787,584 788,583 788,581 789,580 789,579 790,578 790,576 791,575 791,574 792,573 792,571 793,570 793,568 794,567 794,565 795,564 795,562 796,561 796,559 797,558 797,556 798,555 798,553 799,552 799,550 800,549 800,546 801,545 801,543 802,542 802,539 803,538 803,536 804,535 804,532 805,531 805,528 806,527 806,523 807,522 807,519 808,518 808,514 809,513 809,509 810,508 810,503 811,502 811,497 812,496 812,491 813,490 813,483 814,482 814,474 815,473 815,461 816,460 816,409 815,408 815,396 814,395 814,387 813,386 813,379 812,378 812,373 811,372 811,367 810,366 810,361 809,360 809,356 808,355 808,351 807,350 807,347 806,346 806,342 805,341 805,338 804,337 804,334 803,333 803,331 802,330 802,327 801,326 801,324 800,323 800,320 799,319 799,317 798,316 798,314 797,313 797,311 796,310 796,308 795,307 795,305 794,304 794,302 793,301 793,299 792,298 792,296 791,295 791,294 790,293 790,291 789,290 789,289 788,288 788,286 787,285 787,284 786,283 786,281 785,280 785,279 784,278 784,277 783,276 783,274 782,273 782,272 781,271 781,270 780,269 780,268 779,267 779,265 778,264 778,263 777,262 777,261 776,260 776,259 775,258 775,257 774,256 774,255 773,254 773,253 772,252 772,251 770,249 770,248 769,247 769,246 768,245 768,244 767,243 767,242 766,241 766,240 764,238 764,237 763,236 763,235 762,234 762,233 760,231 760,230 759,229 759,228 757,226 757,225 755,223 755,222 754,221 754,220 752,218 752,217 750,215 750,214 748,212 748,211 746,209 746,208 743,205 743,204 741,202 741,201 738,198 738,197 735,194 735,193 732,190 732,189 728,185 728,184 722,178 722,177 716,171 716,170 684,138 683,138 677,132 676,132 671,127 670,127 666,123 665,123 661,119 660,119 657,116 656,116 653,113 652,113 650,111 649,111 646,108 645,108 643,106 642,106 640,104 639,104 637,102 636,102 634,100 633,100 631,98 630,98 629,97 628,97 626,95 625,95 623,93 622,93 621,92 620,92 618,90 617,90 616,89 615,89 614,88 613,88 611,86 610,86 609,85 608,85 607,84 606,84 605,83 604,83 603,82 602,82 600,80 599,80 598,79 597,79 596,78 595,78 594,77 593,77 592,76 591,76 590,75 589,75 588,74 587,74 586,73 584,73 583,72 582,72 581,71 580,71 579,70 578,70 577,69 575,69 574,68 573,68 572,67 571,67 570,66 568,66 567,65 566,65 565,64 563,64 562,63 561,63 560,62 558,62 557,61 556,61 555,60 553,60 552,59 550,59 549,58 547,58 546,57 544,57 543,56 541,56 540,55 538,55 537,54 535,54 534,53 532,53 531,52 529,52 528,51 525,51 524,50 521,50 520,49 518,49 517,48 514,48 513,47 510,47 509,46 505,46 504,45 501,45 500,44 496,44 495,43 491,43 490,42 485,42 484,41 479,41 478,40 473,40 472,39 465,39 464,38 456,38 455,37 443,37 442,36" /></svg>